<mxfile host="app.diagrams.net" modified="2023-04-09T18:10:57.183Z" agent="Mozilla/5.0 (X11; Linux x86_64) AppleWebKit/537.36 (KHTML, like Gecko) Chrome/111.0.0.0 Safari/537.36" etag="JWTwI6ewqCWR2EEyxCaz" version="21.1.4" type="device">
  <diagram name="PÃ¡gina-1" id="qQJWiyfoQFPHpK2mZeA6">
    <mxGraphModel dx="1120" dy="1610" grid="1" gridSize="10" guides="1" tooltips="1" connect="1" arrows="1" fold="1" page="1" pageScale="1" pageWidth="827" pageHeight="1169" math="0" shadow="0">
      <root>
        <mxCell id="0" />
        <mxCell id="1" parent="0" />
        <mxCell id="tat_7VTI6LewS6b9UsbE-14" style="edgeStyle=orthogonalEdgeStyle;rounded=0;orthogonalLoop=1;jettySize=auto;html=1;exitX=0.5;exitY=1;exitDx=0;exitDy=0;entryX=0;entryY=0.5;entryDx=0;entryDy=0;" parent="1" source="pFYgbxmEbH2YbU-FlEuL-2" target="pFYgbxmEbH2YbU-FlEuL-9" edge="1">
          <mxGeometry relative="1" as="geometry" />
        </mxCell>
        <mxCell id="pFYgbxmEbH2YbU-FlEuL-2" value="apresentacao" style="swimlane;whiteSpace=wrap;html=1;" parent="1" vertex="1">
          <mxGeometry x="40" y="-370" width="380" height="570" as="geometry" />
        </mxCell>
        <mxCell id="tat_7VTI6LewS6b9UsbE-24" value="Main" style="swimlane;fontStyle=0;childLayout=stackLayout;horizontal=1;startSize=30;horizontalStack=0;resizeParent=1;resizeParentMax=0;resizeLast=0;collapsible=1;marginBottom=0;whiteSpace=wrap;html=1;" parent="pFYgbxmEbH2YbU-FlEuL-2" vertex="1">
          <mxGeometry x="30" y="30" width="310" height="510" as="geometry" />
        </mxCell>
        <mxCell id="tat_7VTI6LewS6b9UsbE-25" value="+ novoUser() : Usuario&amp;nbsp;" style="text;strokeColor=none;fillColor=none;align=left;verticalAlign=middle;spacingLeft=4;spacingRight=4;overflow=hidden;points=[[0,0.5],[1,0.5]];portConstraint=eastwest;rotatable=0;whiteSpace=wrap;html=1;" parent="tat_7VTI6LewS6b9UsbE-24" vertex="1">
          <mxGeometry y="30" width="310" height="30" as="geometry" />
        </mxCell>
        <mxCell id="tat_7VTI6LewS6b9UsbE-26" value="+ cadastrarUser() : void&amp;nbsp;" style="text;strokeColor=none;fillColor=none;align=left;verticalAlign=middle;spacingLeft=4;spacingRight=4;overflow=hidden;points=[[0,0.5],[1,0.5]];portConstraint=eastwest;rotatable=0;whiteSpace=wrap;html=1;" parent="tat_7VTI6LewS6b9UsbE-24" vertex="1">
          <mxGeometry y="60" width="310" height="30" as="geometry" />
        </mxCell>
        <mxCell id="tat_7VTI6LewS6b9UsbE-31" value="+ logIn() : Usuario&amp;nbsp;" style="text;strokeColor=none;fillColor=none;align=left;verticalAlign=middle;spacingLeft=4;spacingRight=4;overflow=hidden;points=[[0,0.5],[1,0.5]];portConstraint=eastwest;rotatable=0;whiteSpace=wrap;html=1;" parent="tat_7VTI6LewS6b9UsbE-24" vertex="1">
          <mxGeometry y="90" width="310" height="30" as="geometry" />
        </mxCell>
        <mxCell id="tat_7VTI6LewS6b9UsbE-27" value="+ novaMusica() : Musica" style="text;strokeColor=none;fillColor=none;align=left;verticalAlign=middle;spacingLeft=4;spacingRight=4;overflow=hidden;points=[[0,0.5],[1,0.5]];portConstraint=eastwest;rotatable=0;whiteSpace=wrap;html=1;" parent="tat_7VTI6LewS6b9UsbE-24" vertex="1">
          <mxGeometry y="120" width="310" height="30" as="geometry" />
        </mxCell>
        <mxCell id="tat_7VTI6LewS6b9UsbE-30" value="+ cadastrarMusica()&amp;nbsp; : void" style="text;strokeColor=none;fillColor=none;align=left;verticalAlign=middle;spacingLeft=4;spacingRight=4;overflow=hidden;points=[[0,0.5],[1,0.5]];portConstraint=eastwest;rotatable=0;whiteSpace=wrap;html=1;" parent="tat_7VTI6LewS6b9UsbE-24" vertex="1">
          <mxGeometry y="150" width="310" height="30" as="geometry" />
        </mxCell>
        <mxCell id="4ZwJQIKHd-sDHEsI8nVt-1" value="+ adicionarArtistaMusica() : void" style="text;strokeColor=none;fillColor=none;align=left;verticalAlign=middle;spacingLeft=4;spacingRight=4;overflow=hidden;points=[[0,0.5],[1,0.5]];portConstraint=eastwest;rotatable=0;whiteSpace=wrap;html=1;" vertex="1" parent="tat_7VTI6LewS6b9UsbE-24">
          <mxGeometry y="180" width="310" height="30" as="geometry" />
        </mxCell>
        <mxCell id="4ZwJQIKHd-sDHEsI8nVt-2" value="+ editarMusica() : void" style="text;strokeColor=none;fillColor=none;align=left;verticalAlign=middle;spacingLeft=4;spacingRight=4;overflow=hidden;points=[[0,0.5],[1,0.5]];portConstraint=eastwest;rotatable=0;whiteSpace=wrap;html=1;" vertex="1" parent="tat_7VTI6LewS6b9UsbE-24">
          <mxGeometry y="210" width="310" height="30" as="geometry" />
        </mxCell>
        <mxCell id="4ZwJQIKHd-sDHEsI8nVt-3" value="+ novoArtista() : Artista" style="text;strokeColor=none;fillColor=none;align=left;verticalAlign=middle;spacingLeft=4;spacingRight=4;overflow=hidden;points=[[0,0.5],[1,0.5]];portConstraint=eastwest;rotatable=0;whiteSpace=wrap;html=1;" vertex="1" parent="tat_7VTI6LewS6b9UsbE-24">
          <mxGeometry y="240" width="310" height="30" as="geometry" />
        </mxCell>
        <mxCell id="4ZwJQIKHd-sDHEsI8nVt-13" value="+ cadastrarArtista() : Void" style="text;strokeColor=none;fillColor=none;align=left;verticalAlign=middle;spacingLeft=4;spacingRight=4;overflow=hidden;points=[[0,0.5],[1,0.5]];portConstraint=eastwest;rotatable=0;whiteSpace=wrap;html=1;" vertex="1" parent="tat_7VTI6LewS6b9UsbE-24">
          <mxGeometry y="270" width="310" height="30" as="geometry" />
        </mxCell>
        <mxCell id="4ZwJQIKHd-sDHEsI8nVt-14" value="+ adicionarMusicaArtista() : void" style="text;strokeColor=none;fillColor=none;align=left;verticalAlign=middle;spacingLeft=4;spacingRight=4;overflow=hidden;points=[[0,0.5],[1,0.5]];portConstraint=eastwest;rotatable=0;whiteSpace=wrap;html=1;" vertex="1" parent="tat_7VTI6LewS6b9UsbE-24">
          <mxGeometry y="300" width="310" height="30" as="geometry" />
        </mxCell>
        <mxCell id="4ZwJQIKHd-sDHEsI8nVt-15" value="+ editarArtista() : void" style="text;strokeColor=none;fillColor=none;align=left;verticalAlign=middle;spacingLeft=4;spacingRight=4;overflow=hidden;points=[[0,0.5],[1,0.5]];portConstraint=eastwest;rotatable=0;whiteSpace=wrap;html=1;" vertex="1" parent="tat_7VTI6LewS6b9UsbE-24">
          <mxGeometry y="330" width="310" height="30" as="geometry" />
        </mxCell>
        <mxCell id="4ZwJQIKHd-sDHEsI8nVt-28" value="+ cadastrarPlaylist() : void&amp;nbsp;" style="text;strokeColor=none;fillColor=none;align=left;verticalAlign=middle;spacingLeft=4;spacingRight=4;overflow=hidden;points=[[0,0.5],[1,0.5]];portConstraint=eastwest;rotatable=0;whiteSpace=wrap;html=1;" vertex="1" parent="tat_7VTI6LewS6b9UsbE-24">
          <mxGeometry y="360" width="310" height="30" as="geometry" />
        </mxCell>
        <mxCell id="4ZwJQIKHd-sDHEsI8nVt-42" value="+ editarPlaylist() : void&amp;nbsp;" style="text;strokeColor=none;fillColor=none;align=left;verticalAlign=middle;spacingLeft=4;spacingRight=4;overflow=hidden;points=[[0,0.5],[1,0.5]];portConstraint=eastwest;rotatable=0;whiteSpace=wrap;html=1;" vertex="1" parent="tat_7VTI6LewS6b9UsbE-24">
          <mxGeometry y="390" width="310" height="30" as="geometry" />
        </mxCell>
        <mxCell id="4ZwJQIKHd-sDHEsI8nVt-43" value="+ adicionarMusicaPlaylist() : void" style="text;strokeColor=none;fillColor=none;align=left;verticalAlign=middle;spacingLeft=4;spacingRight=4;overflow=hidden;points=[[0,0.5],[1,0.5]];portConstraint=eastwest;rotatable=0;whiteSpace=wrap;html=1;" vertex="1" parent="tat_7VTI6LewS6b9UsbE-24">
          <mxGeometry y="420" width="310" height="30" as="geometry" />
        </mxCell>
        <mxCell id="4ZwJQIKHd-sDHEsI8nVt-44" value="+ exibir() : void" style="text;strokeColor=none;fillColor=none;align=left;verticalAlign=middle;spacingLeft=4;spacingRight=4;overflow=hidden;points=[[0,0.5],[1,0.5]];portConstraint=eastwest;rotatable=0;whiteSpace=wrap;html=1;" vertex="1" parent="tat_7VTI6LewS6b9UsbE-24">
          <mxGeometry y="450" width="310" height="30" as="geometry" />
        </mxCell>
        <mxCell id="4ZwJQIKHd-sDHEsI8nVt-45" value="+ remover() : void" style="text;strokeColor=none;fillColor=none;align=left;verticalAlign=middle;spacingLeft=4;spacingRight=4;overflow=hidden;points=[[0,0.5],[1,0.5]];portConstraint=eastwest;rotatable=0;whiteSpace=wrap;html=1;" vertex="1" parent="tat_7VTI6LewS6b9UsbE-24">
          <mxGeometry y="480" width="310" height="30" as="geometry" />
        </mxCell>
        <mxCell id="pFYgbxmEbH2YbU-FlEuL-8" value="dados" style="swimlane;whiteSpace=wrap;html=1;" parent="1" vertex="1">
          <mxGeometry x="110" y="520" width="760" height="600" as="geometry" />
        </mxCell>
        <mxCell id="pFYgbxmEbH2YbU-FlEuL-24" value="Usuario" style="swimlane;fontStyle=0;childLayout=stackLayout;horizontal=1;startSize=30;horizontalStack=0;resizeParent=1;resizeParentMax=0;resizeLast=0;collapsible=1;marginBottom=0;whiteSpace=wrap;html=1;" parent="pFYgbxmEbH2YbU-FlEuL-8" vertex="1">
          <mxGeometry x="20" y="55" width="180" height="240" as="geometry" />
        </mxCell>
        <mxCell id="pFYgbxmEbH2YbU-FlEuL-27" value="&lt;div&gt;- nome : String&lt;/div&gt;" style="text;strokeColor=none;fillColor=none;align=left;verticalAlign=middle;spacingLeft=4;spacingRight=4;overflow=hidden;points=[[0,0.5],[1,0.5]];portConstraint=eastwest;rotatable=0;whiteSpace=wrap;html=1;" parent="pFYgbxmEbH2YbU-FlEuL-24" vertex="1">
          <mxGeometry y="30" width="180" height="30" as="geometry" />
        </mxCell>
        <mxCell id="pFYgbxmEbH2YbU-FlEuL-25" value="- user : String " style="text;strokeColor=none;fillColor=none;align=left;verticalAlign=middle;spacingLeft=4;spacingRight=4;overflow=hidden;points=[[0,0.5],[1,0.5]];portConstraint=eastwest;rotatable=0;whiteSpace=wrap;html=1;" parent="pFYgbxmEbH2YbU-FlEuL-24" vertex="1">
          <mxGeometry y="60" width="180" height="30" as="geometry" />
        </mxCell>
        <mxCell id="pFYgbxmEbH2YbU-FlEuL-26" value="- senha : String" style="text;strokeColor=none;fillColor=none;align=left;verticalAlign=middle;spacingLeft=4;spacingRight=4;overflow=hidden;points=[[0,0.5],[1,0.5]];portConstraint=eastwest;rotatable=0;whiteSpace=wrap;html=1;" parent="pFYgbxmEbH2YbU-FlEuL-24" vertex="1">
          <mxGeometry y="90" width="180" height="30" as="geometry" />
        </mxCell>
        <mxCell id="pFYgbxmEbH2YbU-FlEuL-30" value="- idade : int" style="text;strokeColor=none;fillColor=none;align=left;verticalAlign=middle;spacingLeft=4;spacingRight=4;overflow=hidden;points=[[0,0.5],[1,0.5]];portConstraint=eastwest;rotatable=0;whiteSpace=wrap;html=1;" parent="pFYgbxmEbH2YbU-FlEuL-24" vertex="1">
          <mxGeometry y="120" width="180" height="30" as="geometry" />
        </mxCell>
        <mxCell id="pFYgbxmEbH2YbU-FlEuL-31" value="&lt;div&gt;- email : String&lt;br&gt;&lt;/div&gt;" style="text;strokeColor=none;fillColor=none;align=left;verticalAlign=middle;spacingLeft=4;spacingRight=4;overflow=hidden;points=[[0,0.5],[1,0.5]];portConstraint=eastwest;rotatable=0;whiteSpace=wrap;html=1;" parent="pFYgbxmEbH2YbU-FlEuL-24" vertex="1">
          <mxGeometry y="150" width="180" height="30" as="geometry" />
        </mxCell>
        <mxCell id="xilAa-NQeiEqGRY9JMa0-1" value="&lt;span style=&quot;color: rgb(0, 0, 0); font-family: Helvetica; font-size: 12px; font-style: normal; font-variant-ligatures: normal; font-variant-caps: normal; font-weight: 400; letter-spacing: normal; orphans: 2; text-align: left; text-indent: 0px; text-transform: none; widows: 2; word-spacing: 0px; -webkit-text-stroke-width: 0px; background-color: rgb(251, 251, 251); text-decoration-thickness: initial; text-decoration-style: initial; text-decoration-color: initial; float: none; display: inline !important;&quot;&gt;+ adicionarPlaylist(playlist: Playlist) : void&lt;/span&gt;" style="text;strokeColor=none;fillColor=none;align=left;verticalAlign=middle;spacingLeft=4;spacingRight=4;overflow=hidden;points=[[0,0.5],[1,0.5]];portConstraint=eastwest;rotatable=0;whiteSpace=wrap;html=1;" parent="pFYgbxmEbH2YbU-FlEuL-24" vertex="1">
          <mxGeometry y="180" width="180" height="30" as="geometry" />
        </mxCell>
        <mxCell id="xilAa-NQeiEqGRY9JMa0-10" value="" style="endArrow=none;html=1;rounded=0;entryX=0.014;entryY=0.033;entryDx=0;entryDy=0;entryPerimeter=0;" parent="pFYgbxmEbH2YbU-FlEuL-24" target="xilAa-NQeiEqGRY9JMa0-1" edge="1">
          <mxGeometry width="50" height="50" relative="1" as="geometry">
            <mxPoint x="180" y="181" as="sourcePoint" />
            <mxPoint x="350" y="195" as="targetPoint" />
          </mxGeometry>
        </mxCell>
        <mxCell id="xilAa-NQeiEqGRY9JMa0-12" value="&lt;span style=&quot;color: rgb(0, 0, 0); font-family: Helvetica; font-size: 12px; font-style: normal; font-variant-ligatures: normal; font-variant-caps: normal; font-weight: 400; letter-spacing: normal; orphans: 2; text-align: left; text-indent: 0px; text-transform: none; widows: 2; word-spacing: 0px; -webkit-text-stroke-width: 0px; background-color: rgb(251, 251, 251); text-decoration-thickness: initial; text-decoration-style: initial; text-decoration-color: initial; float: none; display: inline !important;&quot;&gt;+ toString() : String&lt;/span&gt;" style="text;strokeColor=none;fillColor=none;align=left;verticalAlign=middle;spacingLeft=4;spacingRight=4;overflow=hidden;points=[[0,0.5],[1,0.5]];portConstraint=eastwest;rotatable=0;whiteSpace=wrap;html=1;" parent="pFYgbxmEbH2YbU-FlEuL-24" vertex="1">
          <mxGeometry y="210" width="180" height="30" as="geometry" />
        </mxCell>
        <mxCell id="pFYgbxmEbH2YbU-FlEuL-55" style="edgeStyle=orthogonalEdgeStyle;rounded=0;orthogonalLoop=1;jettySize=auto;html=1;entryX=0.5;entryY=0;entryDx=0;entryDy=0;" parent="pFYgbxmEbH2YbU-FlEuL-8" source="pFYgbxmEbH2YbU-FlEuL-33" target="pFYgbxmEbH2YbU-FlEuL-47" edge="1">
          <mxGeometry relative="1" as="geometry">
            <Array as="points">
              <mxPoint x="540" y="320" />
              <mxPoint x="620" y="320" />
            </Array>
          </mxGeometry>
        </mxCell>
        <mxCell id="pFYgbxmEbH2YbU-FlEuL-33" value="Musica" style="swimlane;fontStyle=0;childLayout=stackLayout;horizontal=1;startSize=30;horizontalStack=0;resizeParent=1;resizeParentMax=0;resizeLast=0;collapsible=1;marginBottom=0;whiteSpace=wrap;html=1;" parent="pFYgbxmEbH2YbU-FlEuL-8" vertex="1">
          <mxGeometry x="430" y="60" width="140" height="180" as="geometry" />
        </mxCell>
        <mxCell id="pFYgbxmEbH2YbU-FlEuL-34" value="- nome: String" style="text;strokeColor=none;fillColor=none;align=left;verticalAlign=middle;spacingLeft=4;spacingRight=4;overflow=hidden;points=[[0,0.5],[1,0.5]];portConstraint=eastwest;rotatable=0;whiteSpace=wrap;html=1;" parent="pFYgbxmEbH2YbU-FlEuL-33" vertex="1">
          <mxGeometry y="30" width="140" height="30" as="geometry" />
        </mxCell>
        <mxCell id="pFYgbxmEbH2YbU-FlEuL-35" value="- genero : String" style="text;strokeColor=none;fillColor=none;align=left;verticalAlign=middle;spacingLeft=4;spacingRight=4;overflow=hidden;points=[[0,0.5],[1,0.5]];portConstraint=eastwest;rotatable=0;whiteSpace=wrap;html=1;" parent="pFYgbxmEbH2YbU-FlEuL-33" vertex="1">
          <mxGeometry y="60" width="140" height="30" as="geometry" />
        </mxCell>
        <mxCell id="pFYgbxmEbH2YbU-FlEuL-36" value="- duracao : int" style="text;strokeColor=none;fillColor=none;align=left;verticalAlign=middle;spacingLeft=4;spacingRight=4;overflow=hidden;points=[[0,0.5],[1,0.5]];portConstraint=eastwest;rotatable=0;whiteSpace=wrap;html=1;" parent="pFYgbxmEbH2YbU-FlEuL-33" vertex="1">
          <mxGeometry y="90" width="140" height="30" as="geometry" />
        </mxCell>
        <mxCell id="xilAa-NQeiEqGRY9JMa0-25" value="" style="endArrow=none;html=1;rounded=0;entryX=0.014;entryY=0.033;entryDx=0;entryDy=0;entryPerimeter=0;" parent="pFYgbxmEbH2YbU-FlEuL-33" edge="1">
          <mxGeometry width="50" height="50" relative="1" as="geometry">
            <mxPoint x="138" y="118.82000000000005" as="sourcePoint" />
            <mxPoint y="118.82000000000005" as="targetPoint" />
          </mxGeometry>
        </mxCell>
        <mxCell id="xilAa-NQeiEqGRY9JMa0-24" value="+ adicionarArtista(artista : Artista) : void" style="text;strokeColor=none;fillColor=none;align=left;verticalAlign=middle;spacingLeft=4;spacingRight=4;overflow=hidden;points=[[0,0.5],[1,0.5]];portConstraint=eastwest;rotatable=0;whiteSpace=wrap;html=1;" parent="pFYgbxmEbH2YbU-FlEuL-33" vertex="1">
          <mxGeometry y="120" width="140" height="30" as="geometry" />
        </mxCell>
        <mxCell id="4ZwJQIKHd-sDHEsI8nVt-68" value="+ toString() : String" style="text;strokeColor=none;fillColor=none;align=left;verticalAlign=middle;spacingLeft=4;spacingRight=4;overflow=hidden;points=[[0,0.5],[1,0.5]];portConstraint=eastwest;rotatable=0;whiteSpace=wrap;html=1;" vertex="1" parent="pFYgbxmEbH2YbU-FlEuL-33">
          <mxGeometry y="150" width="140" height="30" as="geometry" />
        </mxCell>
        <mxCell id="pFYgbxmEbH2YbU-FlEuL-43" value="Playlist" style="swimlane;fontStyle=0;childLayout=stackLayout;horizontal=1;startSize=30;horizontalStack=0;resizeParent=1;resizeParentMax=0;resizeLast=0;collapsible=1;marginBottom=0;whiteSpace=wrap;html=1;" parent="pFYgbxmEbH2YbU-FlEuL-8" vertex="1">
          <mxGeometry x="260" y="260" width="150" height="120" as="geometry" />
        </mxCell>
        <mxCell id="pFYgbxmEbH2YbU-FlEuL-44" value="- nome : String" style="text;strokeColor=none;fillColor=none;align=left;verticalAlign=middle;spacingLeft=4;spacingRight=4;overflow=hidden;points=[[0,0.5],[1,0.5]];portConstraint=eastwest;rotatable=0;whiteSpace=wrap;html=1;" parent="pFYgbxmEbH2YbU-FlEuL-43" vertex="1">
          <mxGeometry y="30" width="150" height="30" as="geometry" />
        </mxCell>
        <mxCell id="xilAa-NQeiEqGRY9JMa0-23" value="" style="endArrow=none;html=1;rounded=0;entryX=0.014;entryY=0.033;entryDx=0;entryDy=0;entryPerimeter=0;" parent="pFYgbxmEbH2YbU-FlEuL-43" edge="1">
          <mxGeometry width="50" height="50" relative="1" as="geometry">
            <mxPoint x="138" y="60" as="sourcePoint" />
            <mxPoint y="60" as="targetPoint" />
          </mxGeometry>
        </mxCell>
        <mxCell id="xilAa-NQeiEqGRY9JMa0-13" value="+ adicionarMusica(musica : Musica) : void" style="text;strokeColor=none;fillColor=none;align=left;verticalAlign=middle;spacingLeft=4;spacingRight=4;overflow=hidden;points=[[0,0.5],[1,0.5]];portConstraint=eastwest;rotatable=0;whiteSpace=wrap;html=1;" parent="pFYgbxmEbH2YbU-FlEuL-43" vertex="1">
          <mxGeometry y="60" width="150" height="30" as="geometry" />
        </mxCell>
        <mxCell id="xilAa-NQeiEqGRY9JMa0-15" value="+ toString() : String" style="text;strokeColor=none;fillColor=none;align=left;verticalAlign=middle;spacingLeft=4;spacingRight=4;overflow=hidden;points=[[0,0.5],[1,0.5]];portConstraint=eastwest;rotatable=0;whiteSpace=wrap;html=1;" parent="pFYgbxmEbH2YbU-FlEuL-43" vertex="1">
          <mxGeometry y="90" width="150" height="30" as="geometry" />
        </mxCell>
        <mxCell id="tat_7VTI6LewS6b9UsbE-4" style="edgeStyle=orthogonalEdgeStyle;rounded=0;orthogonalLoop=1;jettySize=auto;html=1;exitX=0.75;exitY=0;exitDx=0;exitDy=0;entryX=1.029;entryY=0.167;entryDx=0;entryDy=0;entryPerimeter=0;" parent="pFYgbxmEbH2YbU-FlEuL-8" source="pFYgbxmEbH2YbU-FlEuL-47" target="pFYgbxmEbH2YbU-FlEuL-35" edge="1">
          <mxGeometry relative="1" as="geometry">
            <Array as="points">
              <mxPoint x="655" y="380" />
              <mxPoint x="700" y="380" />
              <mxPoint x="700" y="180" />
            </Array>
          </mxGeometry>
        </mxCell>
        <mxCell id="pFYgbxmEbH2YbU-FlEuL-47" value="Artista" style="swimlane;fontStyle=0;childLayout=stackLayout;horizontal=1;startSize=30;horizontalStack=0;resizeParent=1;resizeParentMax=0;resizeLast=0;collapsible=1;marginBottom=0;whiteSpace=wrap;html=1;" parent="pFYgbxmEbH2YbU-FlEuL-8" vertex="1">
          <mxGeometry x="540" y="355" width="160" height="200" as="geometry" />
        </mxCell>
        <mxCell id="pFYgbxmEbH2YbU-FlEuL-48" value="- nome: String" style="text;strokeColor=none;fillColor=none;align=left;verticalAlign=middle;spacingLeft=4;spacingRight=4;overflow=hidden;points=[[0,0.5],[1,0.5]];portConstraint=eastwest;rotatable=0;whiteSpace=wrap;html=1;" parent="pFYgbxmEbH2YbU-FlEuL-47" vertex="1">
          <mxGeometry y="30" width="160" height="30" as="geometry" />
        </mxCell>
        <mxCell id="pFYgbxmEbH2YbU-FlEuL-49" value="- idade : int" style="text;strokeColor=none;fillColor=none;align=left;verticalAlign=middle;spacingLeft=4;spacingRight=4;overflow=hidden;points=[[0,0.5],[1,0.5]];portConstraint=eastwest;rotatable=0;whiteSpace=wrap;html=1;" parent="pFYgbxmEbH2YbU-FlEuL-47" vertex="1">
          <mxGeometry y="60" width="160" height="30" as="geometry" />
        </mxCell>
        <mxCell id="xilAa-NQeiEqGRY9JMa0-26" value="+ adicionarMusicasProduzidas(musica : Musica) : void" style="text;strokeColor=none;fillColor=none;align=left;verticalAlign=middle;spacingLeft=4;spacingRight=4;overflow=hidden;points=[[0,0.5],[1,0.5]];portConstraint=eastwest;rotatable=0;whiteSpace=wrap;html=1;" parent="pFYgbxmEbH2YbU-FlEuL-47" vertex="1">
          <mxGeometry y="90" width="160" height="70" as="geometry" />
        </mxCell>
        <mxCell id="xilAa-NQeiEqGRY9JMa0-97" value="" style="endArrow=none;html=1;rounded=0;exitX=0.007;exitY=0.133;exitDx=0;exitDy=0;exitPerimeter=0;entryX=1;entryY=0.133;entryDx=0;entryDy=0;entryPerimeter=0;" parent="pFYgbxmEbH2YbU-FlEuL-47" source="xilAa-NQeiEqGRY9JMa0-26" target="xilAa-NQeiEqGRY9JMa0-26" edge="1">
          <mxGeometry width="50" height="50" relative="1" as="geometry">
            <mxPoint x="-130" y="45" as="sourcePoint" />
            <mxPoint x="150" y="115" as="targetPoint" />
          </mxGeometry>
        </mxCell>
        <mxCell id="4ZwJQIKHd-sDHEsI8nVt-66" value="+ toString() : String&amp;nbsp;" style="text;strokeColor=none;fillColor=none;align=left;verticalAlign=middle;spacingLeft=4;spacingRight=4;overflow=hidden;points=[[0,0.5],[1,0.5]];portConstraint=eastwest;rotatable=0;whiteSpace=wrap;html=1;" vertex="1" parent="pFYgbxmEbH2YbU-FlEuL-47">
          <mxGeometry y="160" width="160" height="40" as="geometry" />
        </mxCell>
        <mxCell id="pFYgbxmEbH2YbU-FlEuL-54" style="edgeStyle=orthogonalEdgeStyle;rounded=0;orthogonalLoop=1;jettySize=auto;html=1;entryX=0.5;entryY=1;entryDx=0;entryDy=0;" parent="pFYgbxmEbH2YbU-FlEuL-8" target="pFYgbxmEbH2YbU-FlEuL-24" edge="1">
          <mxGeometry relative="1" as="geometry">
            <mxPoint x="200" y="240" as="targetPoint" />
            <mxPoint x="260" y="335" as="sourcePoint" />
          </mxGeometry>
        </mxCell>
        <mxCell id="pFYgbxmEbH2YbU-FlEuL-59" style="edgeStyle=orthogonalEdgeStyle;rounded=0;orthogonalLoop=1;jettySize=auto;html=1;entryX=1;entryY=0.5;entryDx=0;entryDy=0;exitX=0.429;exitY=1;exitDx=0;exitDy=0;exitPerimeter=0;" parent="pFYgbxmEbH2YbU-FlEuL-8" target="pFYgbxmEbH2YbU-FlEuL-43" edge="1" source="4ZwJQIKHd-sDHEsI8nVt-68">
          <mxGeometry relative="1" as="geometry">
            <mxPoint x="490" y="250" as="sourcePoint" />
            <Array as="points">
              <mxPoint x="490" y="250" />
              <mxPoint x="496" y="250" />
              <mxPoint x="496" y="305" />
              <mxPoint x="410" y="305" />
            </Array>
          </mxGeometry>
        </mxCell>
        <mxCell id="pFYgbxmEbH2YbU-FlEuL-62" value="- musicas&amp;nbsp;&amp;nbsp; 0..*" style="text;html=1;strokeColor=none;fillColor=none;align=center;verticalAlign=middle;whiteSpace=wrap;rounded=0;" parent="pFYgbxmEbH2YbU-FlEuL-8" vertex="1">
          <mxGeometry x="400" y="310" width="140" height="30" as="geometry" />
        </mxCell>
        <mxCell id="pFYgbxmEbH2YbU-FlEuL-63" value="- playlists&amp;nbsp; 0..*" style="text;html=1;strokeColor=none;fillColor=none;align=center;verticalAlign=middle;whiteSpace=wrap;rounded=0;" parent="pFYgbxmEbH2YbU-FlEuL-8" vertex="1">
          <mxGeometry x="150" y="340" width="120" height="30" as="geometry" />
        </mxCell>
        <mxCell id="pFYgbxmEbH2YbU-FlEuL-64" value="&lt;div&gt;- artistas&amp;nbsp;&amp;nbsp; 1..*&lt;br&gt;&lt;/div&gt;" style="text;html=1;strokeColor=none;fillColor=none;align=center;verticalAlign=middle;whiteSpace=wrap;rounded=0;" parent="pFYgbxmEbH2YbU-FlEuL-8" vertex="1">
          <mxGeometry x="590" y="155" width="90" height="30" as="geometry" />
        </mxCell>
        <mxCell id="tat_7VTI6LewS6b9UsbE-5" value="- musicasProduzidas&amp;nbsp; &amp;nbsp;1..*" style="text;html=1;strokeColor=none;fillColor=none;align=center;verticalAlign=middle;whiteSpace=wrap;rounded=0;" parent="pFYgbxmEbH2YbU-FlEuL-8" vertex="1">
          <mxGeometry x="540" y="290" width="160" height="30" as="geometry" />
        </mxCell>
        <mxCell id="tat_7VTI6LewS6b9UsbE-15" style="edgeStyle=orthogonalEdgeStyle;rounded=0;orthogonalLoop=1;jettySize=auto;html=1;" parent="1" source="pFYgbxmEbH2YbU-FlEuL-9" target="pFYgbxmEbH2YbU-FlEuL-24" edge="1">
          <mxGeometry relative="1" as="geometry">
            <Array as="points">
              <mxPoint x="200" y="340" />
            </Array>
          </mxGeometry>
        </mxCell>
        <mxCell id="tat_7VTI6LewS6b9UsbE-17" style="edgeStyle=orthogonalEdgeStyle;rounded=0;orthogonalLoop=1;jettySize=auto;html=1;entryX=1;entryY=0;entryDx=0;entryDy=0;entryPerimeter=0;" parent="1" source="pFYgbxmEbH2YbU-FlEuL-9" target="pFYgbxmEbH2YbU-FlEuL-49" edge="1">
          <mxGeometry relative="1" as="geometry">
            <Array as="points">
              <mxPoint x="830" y="500" />
              <mxPoint x="860" y="500" />
              <mxPoint x="860" y="935" />
            </Array>
          </mxGeometry>
        </mxCell>
        <mxCell id="tat_7VTI6LewS6b9UsbE-18" style="edgeStyle=orthogonalEdgeStyle;rounded=0;orthogonalLoop=1;jettySize=auto;html=1;exitX=0;exitY=0.75;exitDx=0;exitDy=0;" parent="1" source="pFYgbxmEbH2YbU-FlEuL-9" edge="1">
          <mxGeometry relative="1" as="geometry">
            <mxPoint x="398" y="780" as="targetPoint" />
            <Array as="points">
              <mxPoint x="380" y="372" />
              <mxPoint x="380" y="510" />
              <mxPoint x="398" y="510" />
              <mxPoint x="398" y="780" />
            </Array>
          </mxGeometry>
        </mxCell>
        <mxCell id="tat_7VTI6LewS6b9UsbE-19" style="edgeStyle=orthogonalEdgeStyle;rounded=0;orthogonalLoop=1;jettySize=auto;html=1;exitX=0.25;exitY=1;exitDx=0;exitDy=0;" parent="1" source="pFYgbxmEbH2YbU-FlEuL-9" edge="1">
          <mxGeometry relative="1" as="geometry">
            <mxPoint x="560" y="580" as="targetPoint" />
          </mxGeometry>
        </mxCell>
        <mxCell id="pFYgbxmEbH2YbU-FlEuL-9" value="&lt;div&gt;negocio&lt;/div&gt;" style="swimlane;whiteSpace=wrap;html=1;startSize=23;" parent="1" vertex="1">
          <mxGeometry x="440" y="50" width="410" height="430" as="geometry">
            <mxRectangle x="390" y="280" width="90" height="30" as="alternateBounds" />
          </mxGeometry>
        </mxCell>
        <mxCell id="pFYgbxmEbH2YbU-FlEuL-10" value="Aplicativo" style="swimlane;fontStyle=0;childLayout=stackLayout;horizontal=1;startSize=30;horizontalStack=0;resizeParent=1;resizeParentMax=0;resizeLast=0;collapsible=1;marginBottom=0;whiteSpace=wrap;html=1;" parent="pFYgbxmEbH2YbU-FlEuL-9" vertex="1">
          <mxGeometry x="50" y="50" width="320" height="360" as="geometry" />
        </mxCell>
        <mxCell id="pFYgbxmEbH2YbU-FlEuL-11" value="+ cadastrarUser(usuario : User) :&amp;nbsp; void" style="text;strokeColor=none;fillColor=none;align=left;verticalAlign=middle;spacingLeft=4;spacingRight=4;overflow=hidden;points=[[0,0.5],[1,0.5]];portConstraint=eastwest;rotatable=0;whiteSpace=wrap;html=1;" parent="pFYgbxmEbH2YbU-FlEuL-10" vertex="1">
          <mxGeometry y="30" width="320" height="30" as="geometry" />
        </mxCell>
        <mxCell id="pFYgbxmEbH2YbU-FlEuL-12" value="+ verUser(nome : String) : boolean" style="text;strokeColor=none;fillColor=none;align=left;verticalAlign=middle;spacingLeft=4;spacingRight=4;overflow=hidden;points=[[0,0.5],[1,0.5]];portConstraint=eastwest;rotatable=0;whiteSpace=wrap;html=1;" parent="pFYgbxmEbH2YbU-FlEuL-10" vertex="1">
          <mxGeometry y="60" width="320" height="30" as="geometry" />
        </mxCell>
        <mxCell id="4ZwJQIKHd-sDHEsI8nVt-47" value="+ buscarUsuarioPorUser(user : String) : Usuario" style="text;strokeColor=none;fillColor=none;align=left;verticalAlign=middle;spacingLeft=4;spacingRight=4;overflow=hidden;points=[[0,0.5],[1,0.5]];portConstraint=eastwest;rotatable=0;whiteSpace=wrap;html=1;" vertex="1" parent="pFYgbxmEbH2YbU-FlEuL-10">
          <mxGeometry y="90" width="320" height="30" as="geometry" />
        </mxCell>
        <mxCell id="4ZwJQIKHd-sDHEsI8nVt-48" value="+ autenticarUser(String user, String senha) : boolean" style="text;strokeColor=none;fillColor=none;align=left;verticalAlign=middle;spacingLeft=4;spacingRight=4;overflow=hidden;points=[[0,0.5],[1,0.5]];portConstraint=eastwest;rotatable=0;whiteSpace=wrap;html=1;" vertex="1" parent="pFYgbxmEbH2YbU-FlEuL-10">
          <mxGeometry y="120" width="320" height="30" as="geometry" />
        </mxCell>
        <mxCell id="4ZwJQIKHd-sDHEsI8nVt-49" value="+ adicionarMusica (musica : Musica) : void" style="text;strokeColor=none;fillColor=none;align=left;verticalAlign=middle;spacingLeft=4;spacingRight=4;overflow=hidden;points=[[0,0.5],[1,0.5]];portConstraint=eastwest;rotatable=0;whiteSpace=wrap;html=1;" vertex="1" parent="pFYgbxmEbH2YbU-FlEuL-10">
          <mxGeometry y="150" width="320" height="30" as="geometry" />
        </mxCell>
        <mxCell id="4ZwJQIKHd-sDHEsI8nVt-50" value="+ buscarMusicaPorNome (nome : String) : Musica" style="text;strokeColor=none;fillColor=none;align=left;verticalAlign=middle;spacingLeft=4;spacingRight=4;overflow=hidden;points=[[0,0.5],[1,0.5]];portConstraint=eastwest;rotatable=0;whiteSpace=wrap;html=1;" vertex="1" parent="pFYgbxmEbH2YbU-FlEuL-10">
          <mxGeometry y="180" width="320" height="30" as="geometry" />
        </mxCell>
        <mxCell id="4ZwJQIKHd-sDHEsI8nVt-51" value="+ verArtista(nome : String, lista : List&amp;lt;Artista&amp;gt;) : boolean" style="text;strokeColor=none;fillColor=none;align=left;verticalAlign=middle;spacingLeft=4;spacingRight=4;overflow=hidden;points=[[0,0.5],[1,0.5]];portConstraint=eastwest;rotatable=0;whiteSpace=wrap;html=1;" vertex="1" parent="pFYgbxmEbH2YbU-FlEuL-10">
          <mxGeometry y="210" width="320" height="30" as="geometry" />
        </mxCell>
        <mxCell id="4ZwJQIKHd-sDHEsI8nVt-60" value="+ buscarArtistaPorNome(String nome) : Artista" style="text;strokeColor=none;fillColor=none;align=left;verticalAlign=middle;spacingLeft=4;spacingRight=4;overflow=hidden;points=[[0,0.5],[1,0.5]];portConstraint=eastwest;rotatable=0;whiteSpace=wrap;html=1;" vertex="1" parent="pFYgbxmEbH2YbU-FlEuL-10">
          <mxGeometry y="240" width="320" height="30" as="geometry" />
        </mxCell>
        <mxCell id="4ZwJQIKHd-sDHEsI8nVt-61" value="+ adicionarArtista(Artista artista) : boolean" style="text;strokeColor=none;fillColor=none;align=left;verticalAlign=middle;spacingLeft=4;spacingRight=4;overflow=hidden;points=[[0,0.5],[1,0.5]];portConstraint=eastwest;rotatable=0;whiteSpace=wrap;html=1;" vertex="1" parent="pFYgbxmEbH2YbU-FlEuL-10">
          <mxGeometry y="270" width="320" height="30" as="geometry" />
        </mxCell>
        <mxCell id="4ZwJQIKHd-sDHEsI8nVt-62" value="+ getMusicasSistema () : List&amp;lt;Musica&amp;gt;" style="text;strokeColor=none;fillColor=none;align=left;verticalAlign=middle;spacingLeft=4;spacingRight=4;overflow=hidden;points=[[0,0.5],[1,0.5]];portConstraint=eastwest;rotatable=0;whiteSpace=wrap;html=1;" vertex="1" parent="pFYgbxmEbH2YbU-FlEuL-10">
          <mxGeometry y="300" width="320" height="30" as="geometry" />
        </mxCell>
        <mxCell id="4ZwJQIKHd-sDHEsI8nVt-63" value="+ getArtistasSistemas () : List&amp;lt;Artista&amp;gt;" style="text;strokeColor=none;fillColor=none;align=left;verticalAlign=middle;spacingLeft=4;spacingRight=4;overflow=hidden;points=[[0,0.5],[1,0.5]];portConstraint=eastwest;rotatable=0;whiteSpace=wrap;html=1;" vertex="1" parent="pFYgbxmEbH2YbU-FlEuL-10">
          <mxGeometry y="330" width="320" height="30" as="geometry" />
        </mxCell>
        <mxCell id="tat_7VTI6LewS6b9UsbE-13" value="&lt;div&gt;- aplicativo&lt;/div&gt;" style="text;html=1;strokeColor=none;fillColor=none;align=center;verticalAlign=middle;whiteSpace=wrap;rounded=0;" parent="1" vertex="1">
          <mxGeometry x="290" y="270" width="90" height="30" as="geometry" />
        </mxCell>
        <mxCell id="tat_7VTI6LewS6b9UsbE-16" value="&lt;span style=&quot;color: rgb(0, 0, 0); font-family: Helvetica; font-size: 12px; font-style: normal; font-variant-ligatures: normal; font-variant-caps: normal; font-weight: 400; letter-spacing: normal; orphans: 2; text-align: center; text-indent: 0px; text-transform: none; widows: 2; word-spacing: 0px; -webkit-text-stroke-width: 0px; background-color: rgb(251, 251, 251); text-decoration-thickness: initial; text-decoration-style: initial; text-decoration-color: initial; float: none; display: inline !important;&quot;&gt;- usuarios 1..*&lt;/span&gt;" style="text;whiteSpace=wrap;html=1;" parent="1" vertex="1">
          <mxGeometry x="220" y="340" width="110" height="40" as="geometry" />
        </mxCell>
        <mxCell id="tat_7VTI6LewS6b9UsbE-20" value="&lt;span style=&quot;color: rgb(0, 0, 0); font-family: Helvetica; font-size: 12px; font-style: normal; font-variant-ligatures: normal; font-variant-caps: normal; font-weight: 400; letter-spacing: normal; orphans: 2; text-align: center; text-indent: 0px; text-transform: none; widows: 2; word-spacing: 0px; -webkit-text-stroke-width: 0px; background-color: rgb(251, 251, 251); text-decoration-thickness: initial; text-decoration-style: initial; text-decoration-color: initial; float: none; display: inline !important;&quot;&gt;- artistas&amp;nbsp; &amp;nbsp;0..*&lt;/span&gt;" style="text;whiteSpace=wrap;html=1;" parent="1" vertex="1">
          <mxGeometry x="740" y="490" width="110" height="40" as="geometry" />
        </mxCell>
        <mxCell id="tat_7VTI6LewS6b9UsbE-21" value="- musicas 0..*" style="text;html=1;align=center;verticalAlign=middle;resizable=0;points=[];autosize=1;strokeColor=none;fillColor=none;" parent="1" vertex="1">
          <mxGeometry x="540" y="495" width="100" height="30" as="geometry" />
        </mxCell>
        <mxCell id="tat_7VTI6LewS6b9UsbE-22" value="&lt;span style=&quot;color: rgb(0, 0, 0); font-family: Helvetica; font-size: 12px; font-style: normal; font-variant-ligatures: normal; font-variant-caps: normal; font-weight: 400; letter-spacing: normal; orphans: 2; text-align: center; text-indent: 0px; text-transform: none; widows: 2; word-spacing: 0px; -webkit-text-stroke-width: 0px; background-color: rgb(251, 251, 251); text-decoration-thickness: initial; text-decoration-style: initial; text-decoration-color: initial; float: none; display: inline !important;&quot;&gt;- playlist 1..*&lt;/span&gt;" style="text;whiteSpace=wrap;html=1;" parent="1" vertex="1">
          <mxGeometry x="304" y="455" width="110" height="40" as="geometry" />
        </mxCell>
      </root>
    </mxGraphModel>
  </diagram>
</mxfile>
